LG_Sit_Stand_Walk02																		
version=1																		
nRows=79																		
nColumns=19																		
inDegrees=yes																		
endheader																		
time	ground_force2_vx	ground_force2_vy	ground_force2_vz	ground_force2_px	ground_force2_py	ground_force2_pz	ground_torque2_x	ground_torque2_y	ground_torque2_z	ground_force1_vx	ground_force1_vy	ground_force1_vz	ground_force1_px	ground_force1_py	ground_force1_pz	ground_torque1_x	ground_torque1_y	ground_torque1_z
3.835	-30.735462	428.49762	-14.795015	0.192489	0	-0.386935	1.00E-05	1.492166	6.00E-06	0	0	0	-0.13	0	0.305	0	0	0
3.836	-30.735462	426.613342	-14.716606	0.192925	0	-0.387328	8.00E-06	1.606705	6.00E-06	0	0	0	-0.13	0	0.305	0	0	0
3.837	-30.735462	425.588867	-14.716606	0.192925	0	-0.386935	7.00E-06	1.606705	3.00E-06	0	0	0	-0.13	0	0.305	0	0	0
3.838	-30.654728	424.545898	-14.24654	0.192925	0	-0.386969	3.00E-06	1.477111	3.00E-06	0	0	0	-0.13	0	0.305	0	0	0
3.839	-30.654728	424.545898	-14.167971	0.192948	0	-0.386969	6.00E-06	1.477111	2.00E-06	0	0	0	-0.13	0	0.305	0	0	0
3.84	-31.049755	424.21225	-14.08972	0.192948	0	-0.386969	6.00E-06	1.423318	2.00E-06	0	0	0	-0.13	0	0.305	0	0	0
3.841	-31.049755	422.658203	-14.08972	0.192948	0	-0.386725	8.00E-06	1.482893	2.00E-06	0	0	0	-0.13	0	0.305	0	0	0
3.842	-30.506964	422.658203	-13.306175	0.193018	0	-0.386665	1.20E-05	1.482893	2.00E-06	0	0	0	-0.13	0	0.305	0	0	0
3.843	-30.500469	422.339935	-13.149551	0.193092	0	-0.386624	1.20E-05	1.527484	2.00E-06	0	0	0	-0.13	0	0.305	0	0	0
3.844	-30.506964	421.460144	-13.149551	0.193092	0	-0.386665	5.00E-06	1.680479	2.00E-06	0	0	0	-0.13	0	0.305	0	0	0
3.845	-30.816923	421.460144	-13.149551	0.193092	0	-0.386624	5.00E-06	1.599011	2.00E-06	0	0	0	-0.13	0	0.305	0	0	0
3.846	-30.816923	420.954407	-13.0709	0.19321	0	-0.38638	5.00E-06	1.599011	6.00E-06	0	0	0	-0.13	0	0.305	0	0	0
3.847	-30.657612	421.486389	-12.757658	0.19321	0	-0.385622	5.00E-06	1.599011	7.00E-06	0	0	0	-0.13	0	0.305	0	0	0
3.848	-30.657612	420.954407	-12.522665	0.193478	0	-0.38541	7.00E-06	1.627666	7.00E-06	0	0	0	-0.13	0	0.305	0	0	0
3.849	-30.504799	419.064789	-12.522547	0.193478	0	-0.38534	1.00E-05	1.627666	7.00E-06	0	0	0	-0.13	0	0.305	0	0	0
3.85	-30.58337	419.064789	-12.522427	0.193478	0	-0.38534	1.00E-05	1.591502	2.00E-06	0	0	0	-0.13	0	0.305	0	0	0
3.851	-30.58337	418.897766	-11.817209	0.193477	0	-0.384623	1.00E-05	1.591502	2.00E-06	0	0	0	-0.13	0	0.305	0	0	0
3.852	-31.209787	418.897766	-11.739037	0.193641	0	-0.384623	1.50E-05	1.594843	6.00E-06	0	0	0	-0.13	0	0.305	0	0	0
3.853	-31.209787	418.221619	-11.817209	0.193599	0	-0.384623	1.50E-05	1.594843	6.00E-06	0	0	0	-0.13	0	0.305	0	0	0
3.854	-31.28908	418.221619	-11.268976	0.19365	0	-0.384583	1.50E-05	1.648426	6.00E-06	0	0	0	-0.13	0	0.305	0	0	0
3.855	-31.131212	418.221619	-11.268772	0.193599	0	-0.384583	1.00E-05	1.61529	3.00E-06	0	0	0	-0.13	0	0.305	0	0	0
3.856	-31.129772	416.150299	-11.112032	0.193737	0	-0.384583	1.00E-05	1.61529	2.00E-06	0	0	0	-0.13	0	0.305	0	0	0
3.857	-31.129772	415.992157	-11.112032	0.193815	0	-0.384471	9.00E-06	1.61529	1.00E-06	0	0	0	-0.13	0	0.305	0	0	0
3.858	-31.050476	415.135071	-11.112032	0.193838	0	-0.383608	8.00E-06	1.536712	1.00E-06	0	0	0	-0.13	0	0.305	0	0	0
3.859	-31.600483	414.95108	-11.112032	0.194027	0	-0.383608	9.00E-06	1.583216	1.00E-06	0	0	0	-0.13	0	0.305	0	0	0
3.86	-31.28764	414.44696	-10.955374	0.194027	0	-0.383589	8.00E-06	1.550144	1.00E-06	0	0	0	-0.13	0	0.305	0	0	0
3.861	-31.28764	414.278381	-10.955374	0.194027	0	-0.382784	1.40E-05	1.550144	1.00E-06	0	0	0	-0.13	0	0.305	0	0	0
3.862	-31.28764	413.426331	-10.798752	0.194345	0	-0.382784	1.00E-05	1.550144	4.00E-06	0	0	0	-0.13	0	0.305	0	0	0
3.863	-31.36549	412.22406	-10.64189	0.194345	0	-0.382777	1.00E-05	1.505466	6.00E-06	0	0	0	-0.13	0	0.305	0	0	0
3.864	-31.521191	411.011749	-10.720499	0.194159	0	-0.383089	1.00E-06	1.621013	4.00E-06	0	0	0	-0.13	0	0.305	0	0	0
3.865	-31.521191	409.47229	-10.720421	0.194052	0	-0.382852	1.00E-06	1.596986	3.00E-06	0	0	0	-0.13	0	0.305	0	0	0
3.866	-31.521191	409.122803	-10.720421	0.194159	0	-0.382852	1.00E-06	1.596986	3.00E-06	0	0	0	-0.13	0	0.305	0	0	0
3.867	-31.210508	408.785767	-10.720341	0.194189	0	-0.382148	1.00E-06	1.584474	3.00E-06	0	0	0	-0.13	0	0.305	0	0	0
3.868	-31.210508	408.103424	-10.328848	0.194514	0	-0.382047	8.00E-06	1.584474	3.00E-06	0	0	0	-0.13	0	0.305	0	0	0
3.869	-31.286915	407.424927	-10.171944	0.194514	0	-0.382028	5.00E-06	1.504835	3.00E-06	0	0	0	-0.13	0	0.305	0	0	0
3.87	-31.286915	406.910004	-10.328848	0.194514	0	-0.382047	1.00E-05	1.582365	3.00E-06	0	0	0	-0.13	0	0.305	0	0	0
3.871	-31.286915	406.910004	-10.407179	0.19454	0	-0.38086	1.00E-05	1.535766	3.00E-06	0	0	0	-0.13	0	0.305	0	0	0
3.872	-31.051922	405.525238	-10.563881	0.194555	0	-0.381374	1.30E-05	1.571027	1.00E-06	0	0	0	-0.13	0	0.305	0	0	0
3.873	-31.051922	405.379486	-10.563881	0.194555	0	-0.380702	1.30E-05	1.535766	3.00E-06	0	0	0	-0.13	0	0.305	0	0	0
3.874	-30.580486	405.379486	-11.033983	0.194873	0	-0.379984	7.00E-06	1.509851	4.00E-06	0	0	0	-0.13	0	0.305	0	0	0
3.875	-30.580486	405.379486	-11.034023	0.194873	0	-0.37966	2.00E-06	1.509851	4.00E-06	0	0	0	-0.13	0	0.305	0	0	0
3.876	-30.580486	404.873779	-11.034105	0.194873	0	-0.37966	2.00E-06	1.517393	5.00E-06	0	0	0	-0.13	0	0.305	0	0	0
3.877	-30.58337	403.656067	-11.190847	0.194756	0	-0.378674	7.00E-06	1.517393	3.00E-06	0	0	0	-0.13	0	0.305	0	0	0
3.878	-30.738352	403.341675	-11.269016	0.195275	0	-0.378401	7.00E-06	1.498851	4.00E-06	0	0	0	-0.13	0	0.305	0	0	0
3.879	-30.738352	403.341675	-11.347708	0.195275	0	-0.378052	3.00E-06	1.498851	3.00E-06	0	0	0	-0.13	0	0.305	0	0	0
3.88	-30.580486	404.201904	-11.81769	0.195275	0	-0.377521	3.00E-06	1.501653	4.00E-06	0	0	0	-0.13	0	0.305	0	0	0
3.881	-30.580486	404.201904	-11.817814	0.195322	0	-0.37732	1.00E-06	1.501653	5.00E-06	0	0	0	-0.13	0	0.305	0	0	0
3.882	-30.582649	403.17627	-11.818012	0.195322	0	-0.37701	1.60E-05	1.543559	5.00E-06	0	0	0	-0.13	0	0.305	0	0	0
3.883	-30.97118	401.286621	-12.131456	0.195347	0	-0.376857	1.20E-05	1.497522	5.00E-06	0	0	0	-0.13	0	0.305	0	0	0
3.884	-30.582649	400.777832	-12.679729	0.195446	0	-0.376798	1.50E-05	1.570933	3.00E-06	0	0	0	-0.13	0	0.305	0	0	0
3.885	-30.894775	400.777832	-13.228325	0.195816	0	-0.37628	1.20E-05	1.588211	3.00E-06	0	0	0	-0.13	0	0.305	0	0	0
3.886	-30.581926	400.098999	-13.385065	0.195821	0	-0.375322	1.50E-05	1.588211	2.00E-06	0	0	0	-0.13	0	0.305	0	0	0
3.887	-30.581926	399.762268	-13.228447	0.195821	0	-0.375139	9.00E-06	1.588211	3.00E-06	0	0	0	-0.13	0	0.305	0	0	0
3.888	-30.581926	399.762268	-13.385065	0.195821	0	-0.375139	8.00E-06	1.53144	3.00E-06	0	0	0	-0.13	0	0.305	0	0	0
3.889	-31.047592	399.084167	-13.463436	0.195981	0	-0.374908	8.00E-06	1.53144	4.00E-06	0	0	0	-0.13	0	0.305	0	0	0
3.89	-31.204014	398.916748	-13.541887	0.195981	0	-0.37481	8.00E-06	1.53144	4.00E-06	0	0	0	-0.13	0	0.305	0	0	0
3.891	-31.204014	398.916748	-14.246984	0.196543	0	-0.374524	8.00E-06	1.592434	6.00E-06	0	0	0	-0.13	0	0.305	0	0	0
3.892	-31.363325	398.916748	-14.482138	0.196543	0	-0.374065	-1.00E-06	1.592434	4.00E-06	0	0	0	-0.13	0	0.305	0	0	0
3.893	-31.363325	397.033325	-14.482138	0.196543	0	-0.373859	-1.00E-06	1.590182	4.00E-06	0	0	0	-0.13	0	0.305	0	0	0
3.894	-31.126163	397.033325	-15.109104	0.19658	0	-0.373859	-1.00E-06	1.580878	4.00E-06	0	0	0	-0.13	0	0.305	0	0	0
3.895	-31.126163	396.694641	-15.109104	0.196551	0	-0.373859	4.00E-06	1.575025	4.00E-06	0	0	0	-0.13	0	0.305	0	0	0
3.896	-31.124718	396.874817	-15.109182	0.196551	0	-0.373591	5.00E-06	1.558608	4.00E-06	0	0	0	-0.13	0	0.305	0	0	0
3.897	-31.124718	396.874817	-15.109182	0.196551	0	-0.373046	4.00E-06	1.539001	4.00E-06	0	0	0	-0.13	0	0.305	0	0	0
3.898	-31.124718	396.874817	-15.579046	0.196497	0	-0.372685	4.00E-06	1.509943	2.00E-06	0	0	0	-0.13	0	0.305	0	0	0
3.899	-30.735462	396.028931	-15.579046	0.196743	0	-0.372367	-1.00E-06	1.484906	5.00E-06	0	0	0	-0.13	0	0.305	0	0	0
3.9	-30.420454	395.672546	-15.422626	0.19665	0	-0.372367	-1.00E-06	1.484906	3.00E-06	0	0	0	-0.13	0	0.305	0	0	0
3.901	-30.420454	394.471375	-15.422626	0.19665	0	-0.372836	9.00E-06	1.484906	4.00E-06	0	0	0	-0.13	0	0.305	0	0	0
3.902	-30.420454	394.471375	-15.501076	0.19665	0	-0.372836	1.20E-05	1.485156	4.00E-06	0	0	0	-0.13	0	0.305	0	0	0
3.903	-30.500469	394.489136	-15.657495	0.196598	0	-0.371956	1.20E-05	1.544991	4.00E-06	0	0	0	-0.13	0	0.305	0	0	0
3.904	-30.499744	394.489136	-15.736189	0.196598	0	-0.371419	5.00E-06	1.544991	4.00E-06	0	0	0	-0.13	0	0.305	0	0	0
3.905	-30.580486	394.325623	-15.97098	0.196598	0	-0.370952	5.00E-06	1.544991	3.00E-06	0	0	0	-0.13	0	0.305	0	0	0
3.906	-30.580486	392.948608	-15.97098	0.196405	0	-0.369733	8.00E-06	1.504929	3.00E-06	0	0	0	-0.13	0	0.305	0	0	0
3.907	-30.580486	392.948608	-15.657942	0.19634	0	-0.369733	8.00E-06	1.540525	4.00E-06	0	0	0	-0.13	0	0.305	0	0	0
3.908	-30.499744	392.948608	-15.657942	0.19634	0	-0.370042	4.00E-06	1.540525	4.00E-06	0	0	0	-0.13	0	0.305	0	0	0
3.909	-30.499744	392.41861	-15.81464	0.19634	0	-0.370358	4.00E-06	1.540525	4.00E-06	0	0	0	-0.13	0	0.305	0	0	0
3.91	-30.499744	392.788544	-15.814762	0.196625	0	-0.370042	5.00E-06	1.566918	4.00E-06	0	0	0	-0.13	0	0.305	0	0	0
3.911	-30.57832	392.095825	-16.128042	0.196625	0	-0.368821	1.20E-05	1.52525	4.00E-06	0	0	0	-0.13	0	0.305	0	0	0
3.912	-30.496861	392.107727	-16.128042	0.196707	0	-0.368582	1.20E-05	1.519298	4.00E-06	0	0	0	-0.13	0	0.305	0	0	0
3.913	-30.496861	392.095825	-16.049875	0.196707	0	-0.368821	6.00E-06	1.519298	2.00E-06	0	0	0	-0.13	0	0.305	0	0	0
